<svg xmlns="http://www.w3.org/2000/svg" xmlns:xlink="http://www.w3.org/1999/xlink" width="1024" height="1024" viewBox="0 0 1024 1024"><defs><linearGradient id="a" x1="0.5" x2="0.5" y2="1" gradientUnits="objectBoundingBox"><stop offset="0" stop-color="#ed6363"/><stop offset="1" stop-color="#db8b8b"/></linearGradient><linearGradient id="b" x1="0.5" x2="0.5" y2="1" gradientUnits="objectBoundingBox"><stop offset="0" stop-color="#de1b1b"/><stop offset="1" stop-color="#d05a5a"/></linearGradient><clipPath id="d"><rect width="1024" height="1024"/></clipPath></defs><g id="c" clip-path="url(#d)"><rect width="1024" height="1024" fill="none"/><path d="M0,1.423S75.03,82.83,171.188,81.92s55.9-53.782,265.525-80.5c80.917-10.312,165.9,131.642,323.953,167.366S1024,72.961,1024,72.961v372.2H0Z" transform="translate(0 579)" fill="none"/><g transform="translate(219 213)"><path d="M255.989,11.817c141.379,0,255.989,58.067,255.989,199.446S310.144,622.937,255.989,622.937,0,352.642,0,211.263,114.61,11.817,255.989,11.817Z" transform="translate(37 5)" fill="url(#a)"/><path d="M83.419,11.817c46.071,0,83.419,18.922,83.419,64.994S101.067,210.964,83.419,210.964,0,122.882,0,76.811,37.348,11.817,83.419,11.817Z" transform="translate(209.254 158.115)" fill="url(#b)"/></g></g></svg>